<mxfile host="app.diagrams.net" modified="2021-08-22T15:10:26.875Z" agent="5.0 (Windows NT 10.0; Win64; x64) AppleWebKit/537.36 (KHTML, like Gecko) Chrome/92.0.4515.159 Safari/537.36" etag="nQ82nBe5f21SbD8L7bh9" version="14.9.8" type="github">
  <diagram id="6-BAD-gwgn_3kW2ObFdZ" name="Page-1">
    <mxGraphModel dx="1730" dy="912" grid="1" gridSize="10" guides="1" tooltips="1" connect="1" arrows="1" fold="1" page="1" pageScale="1" pageWidth="827" pageHeight="1169" background="#FFFFFF" math="0" shadow="0">
      <root>
        <mxCell id="0" />
        <mxCell id="1" parent="0" />
        <mxCell id="iankHsI5JTnCmlIuYej3-14" value="" style="rounded=0;whiteSpace=wrap;html=1;strokeColor=#000000;fillColor=none;gradientColor=#ffffff;" vertex="1" parent="1">
          <mxGeometry x="879.76" y="589" width="320.25" height="291" as="geometry" />
        </mxCell>
        <mxCell id="iankHsI5JTnCmlIuYej3-1" value="" style="rounded=0;whiteSpace=wrap;html=1;strokeColor=#000000;fillColor=none;gradientColor=#ffffff;gradientDirection=north;" vertex="1" parent="1">
          <mxGeometry width="1360" height="1180" as="geometry" />
        </mxCell>
        <mxCell id="rNObOVmtCFIQCvwkpGzT-17" value="" style="rounded=0;whiteSpace=wrap;html=1;gradientColor=#ffffff;fillColor=none;" parent="1" vertex="1">
          <mxGeometry x="520" y="80" width="702" height="830" as="geometry" />
        </mxCell>
        <mxCell id="rNObOVmtCFIQCvwkpGzT-55" value="" style="rounded=0;whiteSpace=wrap;html=1;strokeColor=#000000;fillColor=none;gradientColor=#ffffff;" parent="1" vertex="1">
          <mxGeometry x="879.75" y="120" width="320.25" height="440" as="geometry" />
        </mxCell>
        <mxCell id="rNObOVmtCFIQCvwkpGzT-16" value="" style="rounded=0;whiteSpace=wrap;html=1;gradientColor=#ffffff;gradientDirection=north;fillColor=none;" parent="1" vertex="1">
          <mxGeometry x="80" y="80" width="320" height="840" as="geometry" />
        </mxCell>
        <mxCell id="rNObOVmtCFIQCvwkpGzT-3" value="" style="edgeStyle=none;rounded=0;orthogonalLoop=1;jettySize=auto;html=1;" parent="1" source="rNObOVmtCFIQCvwkpGzT-1" target="rNObOVmtCFIQCvwkpGzT-2" edge="1">
          <mxGeometry relative="1" as="geometry" />
        </mxCell>
        <mxCell id="rNObOVmtCFIQCvwkpGzT-1" value="&lt;font style=&quot;font-size: 18px&quot;&gt;开始&lt;/font&gt;" style="rounded=1;whiteSpace=wrap;html=1;" parent="1" vertex="1">
          <mxGeometry x="160" y="95" width="160" height="30" as="geometry" />
        </mxCell>
        <mxCell id="rNObOVmtCFIQCvwkpGzT-7" value="" style="edgeStyle=none;rounded=0;orthogonalLoop=1;jettySize=auto;html=1;entryX=0.5;entryY=0;entryDx=0;entryDy=0;" parent="1" source="rNObOVmtCFIQCvwkpGzT-2" target="rNObOVmtCFIQCvwkpGzT-4" edge="1">
          <mxGeometry relative="1" as="geometry" />
        </mxCell>
        <mxCell id="rNObOVmtCFIQCvwkpGzT-2" value="&lt;font style=&quot;font-size: 18px&quot;&gt;地物提取模块&lt;/font&gt;" style="rounded=0;whiteSpace=wrap;html=1;" parent="1" vertex="1">
          <mxGeometry x="160" y="165" width="160" height="40" as="geometry" />
        </mxCell>
        <mxCell id="rNObOVmtCFIQCvwkpGzT-9" value="" style="edgeStyle=none;rounded=0;orthogonalLoop=1;jettySize=auto;html=1;" parent="1" source="rNObOVmtCFIQCvwkpGzT-4" target="rNObOVmtCFIQCvwkpGzT-8" edge="1">
          <mxGeometry relative="1" as="geometry" />
        </mxCell>
        <mxCell id="rNObOVmtCFIQCvwkpGzT-4" value="" style="whiteSpace=wrap;html=1;aspect=fixed;" parent="1" vertex="1">
          <mxGeometry x="160" y="245" width="160" height="160" as="geometry" />
        </mxCell>
        <mxCell id="rNObOVmtCFIQCvwkpGzT-5" value="&lt;font style=&quot;font-size: 18px&quot;&gt;道路&lt;/font&gt;" style="rounded=1;whiteSpace=wrap;html=1;" parent="1" vertex="1">
          <mxGeometry x="180" y="275" width="120" height="40" as="geometry" />
        </mxCell>
        <mxCell id="rNObOVmtCFIQCvwkpGzT-6" value="&lt;font style=&quot;font-size: 18px&quot;&gt;建筑物&lt;/font&gt;" style="rounded=1;whiteSpace=wrap;html=1;" parent="1" vertex="1">
          <mxGeometry x="180" y="335" width="120" height="40" as="geometry" />
        </mxCell>
        <mxCell id="rNObOVmtCFIQCvwkpGzT-11" value="" style="edgeStyle=none;rounded=0;orthogonalLoop=1;jettySize=auto;html=1;" parent="1" source="rNObOVmtCFIQCvwkpGzT-8" target="rNObOVmtCFIQCvwkpGzT-10" edge="1">
          <mxGeometry relative="1" as="geometry" />
        </mxCell>
        <mxCell id="rNObOVmtCFIQCvwkpGzT-8" value="&lt;font style=&quot;font-size: 18px&quot;&gt;上传图片&lt;/font&gt;" style="whiteSpace=wrap;html=1;" parent="1" vertex="1">
          <mxGeometry x="160" y="435" width="160" height="60" as="geometry" />
        </mxCell>
        <mxCell id="rNObOVmtCFIQCvwkpGzT-12" style="edgeStyle=orthogonalEdgeStyle;rounded=0;orthogonalLoop=1;jettySize=auto;html=1;exitX=0;exitY=0.5;exitDx=0;exitDy=0;entryX=0;entryY=0.5;entryDx=0;entryDy=0;" parent="1" source="rNObOVmtCFIQCvwkpGzT-10" target="rNObOVmtCFIQCvwkpGzT-8" edge="1">
          <mxGeometry relative="1" as="geometry">
            <Array as="points">
              <mxPoint x="120" y="565" />
              <mxPoint x="120" y="465" />
            </Array>
          </mxGeometry>
        </mxCell>
        <mxCell id="rNObOVmtCFIQCvwkpGzT-15" value="" style="edgeStyle=orthogonalEdgeStyle;rounded=0;orthogonalLoop=1;jettySize=auto;html=1;" parent="1" source="rNObOVmtCFIQCvwkpGzT-10" target="rNObOVmtCFIQCvwkpGzT-14" edge="1">
          <mxGeometry relative="1" as="geometry" />
        </mxCell>
        <mxCell id="rNObOVmtCFIQCvwkpGzT-10" value="&lt;font style=&quot;font-size: 18px&quot;&gt;判断图&lt;br&gt;片格式&lt;/font&gt;" style="rhombus;whiteSpace=wrap;html=1;" parent="1" vertex="1">
          <mxGeometry x="160" y="525" width="160" height="80" as="geometry" />
        </mxCell>
        <mxCell id="rNObOVmtCFIQCvwkpGzT-13" value="&lt;font style=&quot;font-size: 18px&quot;&gt;否&lt;/font&gt;" style="text;html=1;strokeColor=none;fillColor=none;align=center;verticalAlign=middle;whiteSpace=wrap;rounded=0;" parent="1" vertex="1">
          <mxGeometry x="120" y="505" width="40" height="20" as="geometry" />
        </mxCell>
        <mxCell id="rNObOVmtCFIQCvwkpGzT-14" value="&lt;font style=&quot;font-size: 18px&quot;&gt;执行地物预测&lt;/font&gt;" style="whiteSpace=wrap;html=1;" parent="1" vertex="1">
          <mxGeometry x="160" y="645" width="160" height="60" as="geometry" />
        </mxCell>
        <mxCell id="rNObOVmtCFIQCvwkpGzT-19" value="" style="swimlane;startSize=0;gradientColor=#ffffff;" parent="1" vertex="1">
          <mxGeometry x="580" y="120" width="240" height="240" as="geometry">
            <mxRectangle x="520" y="95" width="50" height="40" as="alternateBounds" />
          </mxGeometry>
        </mxCell>
        <mxCell id="rNObOVmtCFIQCvwkpGzT-20" value="&lt;font style=&quot;font-size: 18px&quot;&gt;预测图片路径&lt;/font&gt;" style="rounded=1;whiteSpace=wrap;html=1;gradientColor=#ffffff;" parent="rNObOVmtCFIQCvwkpGzT-19" vertex="1">
          <mxGeometry x="60" y="50" width="120" height="40" as="geometry" />
        </mxCell>
        <mxCell id="rNObOVmtCFIQCvwkpGzT-21" value="&lt;font style=&quot;font-size: 18px&quot;&gt;结果输出路径&lt;/font&gt;" style="rounded=1;whiteSpace=wrap;html=1;gradientColor=#ffffff;" parent="rNObOVmtCFIQCvwkpGzT-19" vertex="1">
          <mxGeometry x="60" y="110" width="120" height="40" as="geometry" />
        </mxCell>
        <mxCell id="rNObOVmtCFIQCvwkpGzT-38" value="&lt;font style=&quot;font-size: 18px&quot;&gt;参数列表&lt;/font&gt;" style="text;html=1;strokeColor=none;align=center;verticalAlign=middle;whiteSpace=wrap;rounded=0;fillColor=#ffffff;" parent="rNObOVmtCFIQCvwkpGzT-19" vertex="1">
          <mxGeometry x="75" y="10" width="90" height="20" as="geometry" />
        </mxCell>
        <mxCell id="rNObOVmtCFIQCvwkpGzT-23" style="edgeStyle=orthogonalEdgeStyle;rounded=0;orthogonalLoop=1;jettySize=auto;html=1;entryX=0;entryY=0.5;entryDx=0;entryDy=0;dashed=1;" parent="1" target="rNObOVmtCFIQCvwkpGzT-19" edge="1">
          <mxGeometry relative="1" as="geometry">
            <mxPoint x="320" y="675" as="sourcePoint" />
            <mxPoint x="440" y="400" as="targetPoint" />
            <Array as="points">
              <mxPoint x="542" y="675" />
              <mxPoint x="542" y="240" />
            </Array>
          </mxGeometry>
        </mxCell>
        <mxCell id="rNObOVmtCFIQCvwkpGzT-24" value="&lt;font style=&quot;font-size: 18px&quot;&gt;参数&lt;/font&gt;" style="text;html=1;strokeColor=none;fillColor=none;align=center;verticalAlign=middle;whiteSpace=wrap;rounded=0;" parent="1" vertex="1">
          <mxGeometry x="440" y="650" width="40" height="20" as="geometry" />
        </mxCell>
        <mxCell id="rNObOVmtCFIQCvwkpGzT-39" value="" style="rounded=0;whiteSpace=wrap;html=1;strokeColor=#000000;fillColor=none;gradientColor=#ffffff;" parent="1" vertex="1">
          <mxGeometry x="580" y="400" width="240" height="480" as="geometry" />
        </mxCell>
        <mxCell id="rNObOVmtCFIQCvwkpGzT-22" value="&lt;span style=&quot;font-size: 18px&quot;&gt;提取何种地物&lt;/span&gt;" style="rounded=1;whiteSpace=wrap;html=1;gradientColor=#ffffff;" parent="1" vertex="1">
          <mxGeometry x="639" y="295" width="120" height="40" as="geometry" />
        </mxCell>
        <mxCell id="rNObOVmtCFIQCvwkpGzT-41" value="" style="edgeStyle=orthogonalEdgeStyle;rounded=0;orthogonalLoop=1;jettySize=auto;html=1;strokeColor=#000000;" parent="1" source="rNObOVmtCFIQCvwkpGzT-31" target="rNObOVmtCFIQCvwkpGzT-36" edge="1">
          <mxGeometry relative="1" as="geometry" />
        </mxCell>
        <mxCell id="rNObOVmtCFIQCvwkpGzT-31" value="&lt;font style=&quot;font-size: 18px&quot;&gt;创建深度学习模型&lt;/font&gt;" style="rounded=0;whiteSpace=wrap;html=1;fillColor=none;gradientColor=#ffffff;" parent="1" vertex="1">
          <mxGeometry x="599" y="445" width="200" height="60" as="geometry" />
        </mxCell>
        <mxCell id="rNObOVmtCFIQCvwkpGzT-32" value="" style="endArrow=classic;html=1;entryX=0.5;entryY=0;entryDx=0;entryDy=0;dashed=1;" parent="1" target="rNObOVmtCFIQCvwkpGzT-31" edge="1">
          <mxGeometry width="50" height="50" relative="1" as="geometry">
            <mxPoint x="700" y="335" as="sourcePoint" />
            <mxPoint x="699" y="395" as="targetPoint" />
          </mxGeometry>
        </mxCell>
        <mxCell id="rNObOVmtCFIQCvwkpGzT-48" value="" style="edgeStyle=orthogonalEdgeStyle;rounded=0;orthogonalLoop=1;jettySize=auto;html=1;strokeColor=#000000;" parent="1" source="rNObOVmtCFIQCvwkpGzT-36" target="rNObOVmtCFIQCvwkpGzT-47" edge="1">
          <mxGeometry relative="1" as="geometry" />
        </mxCell>
        <mxCell id="rNObOVmtCFIQCvwkpGzT-36" value="&lt;span style=&quot;font-size: 18px&quot;&gt;读取图片&lt;/span&gt;" style="rounded=0;whiteSpace=wrap;html=1;fillColor=none;gradientColor=#ffffff;" parent="1" vertex="1">
          <mxGeometry x="599" y="529" width="200" height="60" as="geometry" />
        </mxCell>
        <mxCell id="rNObOVmtCFIQCvwkpGzT-40" value="&lt;font style=&quot;font-size: 18px&quot;&gt;预测模块&lt;/font&gt;" style="text;html=1;strokeColor=none;align=center;verticalAlign=middle;whiteSpace=wrap;rounded=0;fillColor=#ffffff;" parent="1" vertex="1">
          <mxGeometry x="599" y="415" width="90" height="20" as="geometry" />
        </mxCell>
        <mxCell id="rNObOVmtCFIQCvwkpGzT-46" style="edgeStyle=orthogonalEdgeStyle;rounded=0;orthogonalLoop=1;jettySize=auto;html=1;entryX=1;entryY=0.5;entryDx=0;entryDy=0;dashed=1;exitX=1;exitY=0.5;exitDx=0;exitDy=0;" parent="1" source="rNObOVmtCFIQCvwkpGzT-20" target="rNObOVmtCFIQCvwkpGzT-36" edge="1">
          <mxGeometry relative="1" as="geometry">
            <mxPoint x="747" y="613" as="sourcePoint" />
            <mxPoint x="1007" y="178" as="targetPoint" />
            <Array as="points">
              <mxPoint x="843" y="190" />
              <mxPoint x="843" y="555" />
            </Array>
          </mxGeometry>
        </mxCell>
        <mxCell id="iankHsI5JTnCmlIuYej3-4" style="edgeStyle=orthogonalEdgeStyle;rounded=0;orthogonalLoop=1;jettySize=auto;html=1;exitX=1;exitY=0.5;exitDx=0;exitDy=0;entryX=0;entryY=0.5;entryDx=0;entryDy=0;strokeColor=#000000;dashed=1;" edge="1" parent="1" source="rNObOVmtCFIQCvwkpGzT-47" target="iankHsI5JTnCmlIuYej3-3">
          <mxGeometry relative="1" as="geometry">
            <Array as="points">
              <mxPoint x="860" y="642" />
              <mxPoint x="860" y="260" />
            </Array>
          </mxGeometry>
        </mxCell>
        <mxCell id="rNObOVmtCFIQCvwkpGzT-47" value="&lt;font style=&quot;font-size: 18px&quot;&gt;数据预处理&lt;/font&gt;" style="rounded=0;whiteSpace=wrap;html=1;fillColor=none;gradientColor=#ffffff;" parent="1" vertex="1">
          <mxGeometry x="599" y="612" width="200" height="60" as="geometry" />
        </mxCell>
        <mxCell id="rNObOVmtCFIQCvwkpGzT-53" value="" style="edgeStyle=orthogonalEdgeStyle;rounded=0;orthogonalLoop=1;jettySize=auto;html=1;strokeColor=#000000;" parent="1" source="rNObOVmtCFIQCvwkpGzT-49" target="rNObOVmtCFIQCvwkpGzT-52" edge="1">
          <mxGeometry relative="1" as="geometry" />
        </mxCell>
        <mxCell id="rNObOVmtCFIQCvwkpGzT-49" value="&lt;span style=&quot;font-size: 18px&quot;&gt;开始预测&lt;/span&gt;" style="rounded=0;whiteSpace=wrap;html=1;fillColor=none;gradientColor=#ffffff;" parent="1" vertex="1">
          <mxGeometry x="598" y="705" width="200" height="60" as="geometry" />
        </mxCell>
        <mxCell id="iankHsI5JTnCmlIuYej3-15" style="edgeStyle=orthogonalEdgeStyle;rounded=0;orthogonalLoop=1;jettySize=auto;html=1;exitX=1;exitY=0.5;exitDx=0;exitDy=0;entryX=0;entryY=0.5;entryDx=0;entryDy=0;dashed=1;strokeColor=#000000;" edge="1" parent="1" source="rNObOVmtCFIQCvwkpGzT-52" target="iankHsI5JTnCmlIuYej3-18">
          <mxGeometry relative="1" as="geometry">
            <Array as="points">
              <mxPoint x="920" y="808" />
              <mxPoint x="920" y="667" />
            </Array>
          </mxGeometry>
        </mxCell>
        <mxCell id="iankHsI5JTnCmlIuYej3-28" style="edgeStyle=orthogonalEdgeStyle;rounded=0;orthogonalLoop=1;jettySize=auto;html=1;exitX=-0.001;exitY=0.878;exitDx=0;exitDy=0;strokeColor=#000000;exitPerimeter=0;" edge="1" parent="1" source="rNObOVmtCFIQCvwkpGzT-17" target="iankHsI5JTnCmlIuYej3-27">
          <mxGeometry relative="1" as="geometry">
            <Array as="points">
              <mxPoint x="519" y="810" />
            </Array>
          </mxGeometry>
        </mxCell>
        <mxCell id="rNObOVmtCFIQCvwkpGzT-52" value="&lt;font style=&quot;font-size: 18px&quot;&gt;预测结果&lt;/font&gt;" style="whiteSpace=wrap;html=1;rounded=0;fillColor=none;gradientColor=#ffffff;" parent="1" vertex="1">
          <mxGeometry x="599" y="800" width="199" height="60" as="geometry" />
        </mxCell>
        <mxCell id="rNObOVmtCFIQCvwkpGzT-54" style="edgeStyle=orthogonalEdgeStyle;rounded=0;orthogonalLoop=1;jettySize=auto;html=1;entryX=0;entryY=0.5;entryDx=0;entryDy=0;dashed=1;exitX=0;exitY=0.5;exitDx=0;exitDy=0;" parent="1" source="rNObOVmtCFIQCvwkpGzT-21" target="rNObOVmtCFIQCvwkpGzT-52" edge="1">
          <mxGeometry relative="1" as="geometry">
            <mxPoint x="330" y="684.9999999999998" as="sourcePoint" />
            <mxPoint x="590" y="250" as="targetPoint" />
            <Array as="points">
              <mxPoint x="557" y="250" />
              <mxPoint x="557" y="830" />
            </Array>
          </mxGeometry>
        </mxCell>
        <mxCell id="rNObOVmtCFIQCvwkpGzT-56" value="&lt;font style=&quot;font-size: 18px&quot;&gt;数据处理单元&lt;/font&gt;" style="text;html=1;strokeColor=none;align=center;verticalAlign=middle;whiteSpace=wrap;rounded=0;fillColor=#ffffff;" parent="1" vertex="1">
          <mxGeometry x="982.63" y="130" width="114.5" height="20" as="geometry" />
        </mxCell>
        <mxCell id="iankHsI5JTnCmlIuYej3-6" value="" style="edgeStyle=orthogonalEdgeStyle;rounded=0;orthogonalLoop=1;jettySize=auto;html=1;strokeColor=#000000;exitX=0.5;exitY=1;exitDx=0;exitDy=0;" edge="1" parent="1" source="iankHsI5JTnCmlIuYej3-3" target="iankHsI5JTnCmlIuYej3-5">
          <mxGeometry relative="1" as="geometry">
            <mxPoint x="1039.8333333333335" y="340.0025000000003" as="sourcePoint" />
          </mxGeometry>
        </mxCell>
        <mxCell id="iankHsI5JTnCmlIuYej3-10" style="edgeStyle=orthogonalEdgeStyle;rounded=0;orthogonalLoop=1;jettySize=auto;html=1;exitX=1;exitY=0.5;exitDx=0;exitDy=0;entryX=1;entryY=0.25;entryDx=0;entryDy=0;strokeColor=#000000;" edge="1" parent="1" source="iankHsI5JTnCmlIuYej3-3" target="iankHsI5JTnCmlIuYej3-7">
          <mxGeometry relative="1" as="geometry">
            <Array as="points">
              <mxPoint x="1160" y="260" />
              <mxPoint x="1160" y="495" />
            </Array>
          </mxGeometry>
        </mxCell>
        <mxCell id="iankHsI5JTnCmlIuYej3-3" value="&lt;font style=&quot;font-size: 18px&quot;&gt;是否满足&lt;br&gt;固定尺寸&lt;/font&gt;" style="rhombus;whiteSpace=wrap;html=1;strokeColor=#000000;fillColor=none;gradientColor=#ffffff;gradientDirection=north;" vertex="1" parent="1">
          <mxGeometry x="959.87" y="200" width="160" height="120" as="geometry" />
        </mxCell>
        <mxCell id="iankHsI5JTnCmlIuYej3-8" value="" style="edgeStyle=orthogonalEdgeStyle;rounded=0;orthogonalLoop=1;jettySize=auto;html=1;strokeColor=#000000;" edge="1" parent="1" source="iankHsI5JTnCmlIuYej3-5" target="iankHsI5JTnCmlIuYej3-7">
          <mxGeometry relative="1" as="geometry" />
        </mxCell>
        <mxCell id="iankHsI5JTnCmlIuYej3-5" value="&lt;font style=&quot;font-size: 18px&quot;&gt;数据切片&lt;/font&gt;" style="whiteSpace=wrap;html=1;fillColor=none;gradientColor=#ffffff;gradientDirection=north;" vertex="1" parent="1">
          <mxGeometry x="959.88" y="375.03" width="160" height="60" as="geometry" />
        </mxCell>
        <mxCell id="iankHsI5JTnCmlIuYej3-12" style="edgeStyle=orthogonalEdgeStyle;rounded=0;orthogonalLoop=1;jettySize=auto;html=1;exitX=0;exitY=0.5;exitDx=0;exitDy=0;entryX=1;entryY=0.5;entryDx=0;entryDy=0;strokeColor=#000000;dashed=1;" edge="1" parent="1" source="iankHsI5JTnCmlIuYej3-7" target="rNObOVmtCFIQCvwkpGzT-49">
          <mxGeometry relative="1" as="geometry">
            <Array as="points">
              <mxPoint x="870" y="510" />
              <mxPoint x="870" y="735" />
            </Array>
          </mxGeometry>
        </mxCell>
        <mxCell id="iankHsI5JTnCmlIuYej3-7" value="&lt;font style=&quot;font-size: 18px&quot;&gt;测试数据集&lt;/font&gt;" style="whiteSpace=wrap;html=1;fillColor=none;gradientColor=#ffffff;gradientDirection=north;" vertex="1" parent="1">
          <mxGeometry x="959.87" y="480.03" width="160" height="60" as="geometry" />
        </mxCell>
        <mxCell id="iankHsI5JTnCmlIuYej3-9" value="&lt;font style=&quot;font-size: 18px&quot;&gt;否&lt;/font&gt;" style="text;html=1;strokeColor=none;fillColor=none;align=center;verticalAlign=middle;whiteSpace=wrap;rounded=0;" vertex="1" parent="1">
          <mxGeometry x="1000" y="335" width="40" height="20" as="geometry" />
        </mxCell>
        <mxCell id="iankHsI5JTnCmlIuYej3-11" value="&lt;font style=&quot;font-size: 18px&quot;&gt;是&lt;/font&gt;" style="text;html=1;strokeColor=none;fillColor=none;align=center;verticalAlign=middle;whiteSpace=wrap;rounded=0;" vertex="1" parent="1">
          <mxGeometry x="1119.88" y="240" width="40" height="20" as="geometry" />
        </mxCell>
        <mxCell id="iankHsI5JTnCmlIuYej3-13" style="edgeStyle=orthogonalEdgeStyle;rounded=0;orthogonalLoop=1;jettySize=auto;html=1;exitX=0.5;exitY=1;exitDx=0;exitDy=0;dashed=1;strokeColor=#000000;" edge="1" parent="1" source="rNObOVmtCFIQCvwkpGzT-17" target="rNObOVmtCFIQCvwkpGzT-17">
          <mxGeometry relative="1" as="geometry" />
        </mxCell>
        <mxCell id="iankHsI5JTnCmlIuYej3-17" value="&lt;font style=&quot;font-size: 18px&quot;&gt;结果保存单元&lt;/font&gt;" style="text;html=1;strokeColor=none;align=center;verticalAlign=middle;whiteSpace=wrap;rounded=0;fillColor=#ffffff;" vertex="1" parent="1">
          <mxGeometry x="982.62" y="605" width="114.5" height="20" as="geometry" />
        </mxCell>
        <mxCell id="iankHsI5JTnCmlIuYej3-21" value="" style="edgeStyle=orthogonalEdgeStyle;rounded=0;orthogonalLoop=1;jettySize=auto;html=1;strokeColor=#000000;" edge="1" parent="1" source="iankHsI5JTnCmlIuYej3-18" target="iankHsI5JTnCmlIuYej3-20">
          <mxGeometry relative="1" as="geometry" />
        </mxCell>
        <mxCell id="iankHsI5JTnCmlIuYej3-24" style="edgeStyle=orthogonalEdgeStyle;rounded=0;orthogonalLoop=1;jettySize=auto;html=1;exitX=1;exitY=0.5;exitDx=0;exitDy=0;entryX=1;entryY=0.5;entryDx=0;entryDy=0;strokeColor=#000000;" edge="1" parent="1" source="iankHsI5JTnCmlIuYej3-18" target="iankHsI5JTnCmlIuYej3-22">
          <mxGeometry relative="1" as="geometry">
            <Array as="points">
              <mxPoint x="1160" y="668" />
              <mxPoint x="1160" y="840" />
            </Array>
          </mxGeometry>
        </mxCell>
        <mxCell id="iankHsI5JTnCmlIuYej3-18" value="&lt;font style=&quot;font-size: 18px&quot;&gt;是否进行&lt;br&gt;数据切片&lt;/font&gt;" style="rhombus;whiteSpace=wrap;html=1;strokeColor=#000000;fillColor=none;gradientColor=#ffffff;gradientDirection=north;" vertex="1" parent="1">
          <mxGeometry x="969.81" y="630" width="140.13" height="75" as="geometry" />
        </mxCell>
        <mxCell id="iankHsI5JTnCmlIuYej3-23" value="" style="edgeStyle=orthogonalEdgeStyle;rounded=0;orthogonalLoop=1;jettySize=auto;html=1;strokeColor=#000000;" edge="1" parent="1" source="iankHsI5JTnCmlIuYej3-20" target="iankHsI5JTnCmlIuYej3-22">
          <mxGeometry relative="1" as="geometry" />
        </mxCell>
        <mxCell id="iankHsI5JTnCmlIuYej3-20" value="&lt;font style=&quot;font-size: 18px&quot;&gt;图像拼接&lt;/font&gt;" style="whiteSpace=wrap;html=1;fillColor=none;gradientColor=#ffffff;gradientDirection=north;" vertex="1" parent="1">
          <mxGeometry x="959.87" y="730" width="160" height="60" as="geometry" />
        </mxCell>
        <mxCell id="iankHsI5JTnCmlIuYej3-22" value="&lt;font style=&quot;font-size: 18px&quot;&gt;保存预测结果&lt;/font&gt;" style="whiteSpace=wrap;html=1;fillColor=none;gradientColor=#ffffff;gradientDirection=north;" vertex="1" parent="1">
          <mxGeometry x="959.89" y="810" width="160" height="60" as="geometry" />
        </mxCell>
        <mxCell id="iankHsI5JTnCmlIuYej3-25" value="&lt;font style=&quot;font-size: 18px&quot;&gt;否&lt;/font&gt;" style="text;html=1;strokeColor=none;fillColor=none;align=center;verticalAlign=middle;whiteSpace=wrap;rounded=0;" vertex="1" parent="1">
          <mxGeometry x="1109.94" y="645" width="40" height="20" as="geometry" />
        </mxCell>
        <mxCell id="iankHsI5JTnCmlIuYej3-26" value="&lt;font style=&quot;font-size: 18px&quot;&gt;是&lt;/font&gt;" style="text;html=1;strokeColor=none;fillColor=none;align=center;verticalAlign=middle;whiteSpace=wrap;rounded=0;" vertex="1" parent="1">
          <mxGeometry x="1040" y="705" width="40" height="20" as="geometry" />
        </mxCell>
        <mxCell id="iankHsI5JTnCmlIuYej3-27" value="" style="whiteSpace=wrap;html=1;aspect=fixed;" vertex="1" parent="1">
          <mxGeometry x="160" y="730" width="160" height="160" as="geometry" />
        </mxCell>
      </root>
    </mxGraphModel>
  </diagram>
</mxfile>
